<?xml version="1.0" encoding="utf-8"?>
<!-- Generator: Adobe Illustrator 23.0.1, SVG Export Plug-In . SVG Version: 6.00 Build 0)  -->
<svg version="1.1" id="Layer_1" xmlns="http://www.w3.org/2000/svg" xmlns:xlink="http://www.w3.org/1999/xlink" x="0px" y="0px"
	 width="50px" height="40px" viewBox="0 0 47 47" style="enable-background:new 0 0 47 47;" xml:space="preserve">
<style type="text/css">
	.st0{fill:#FFFFFF;}
</style>
<g>
	<path class="st0" d="M15.3,2.5C15.1,2.2,14.8,2,14.5,2c-0.4,0-0.9,0.3-0.9,0.8L8.5,34l11.7-22L15.3,2.5z"/>
	<path class="st0" d="M24.4,19.8l0.4-0.4l0.4-0.4l3.3-3.2l-3.7-7.4C24.6,8.1,24.3,8,24,8c-0.3,0-0.6,0.1-0.7,0.4l-1.9,3.5l-0.3,0.5
		L20.8,13L9.5,34.1L24.4,19.8z"/>
	<path class="st0" d="M36.3,11.8c-0.1-0.5-0.5-0.8-0.9-0.8c-0.2,0-0.5,0.1-0.7,0.3l-5,4.8l-0.4,0.4l-0.4,0.4L25.6,20l-0.4,0.4
		l-0.4,0.4L8,37l0,0l0.5,0.3l0,0l0.5,0.3l0,0L23,45.7c0.3,0.2,0.6,0.3,1,0.3c0.3,0,0.7-0.1,1-0.3L40,37L36.3,11.8z"/>
</g>
</svg>
