<?xml version="1.0" encoding="utf-8"?>
<!-- Generator: Adobe Illustrator 23.0.1, SVG Export Plug-In . SVG Version: 6.00 Build 0)  -->
<svg version="1.1" id="Layer_1" xmlns="http://www.w3.org/2000/svg" xmlns:xlink="http://www.w3.org/1999/xlink" x="0px" y="0px"
	 viewBox="0 0 400 298" style="enable-background:new 0 0 400 298;" xml:space="preserve">
<style type="text/css">
	.st0{fill:url(#SVGID_1_);}
</style>
<linearGradient id="SVGID_1_" gradientUnits="userSpaceOnUse" x1="200.6729" y1="-1.3959" x2="199.5405" y2="293.0255">
	<stop  offset="0" style="stop-color:#F15A24"/>
	<stop  offset="0.9895" style="stop-color:#F48134"/>
	<stop  offset="1" style="stop-color:#F48134"/>
</linearGradient>
<path class="st0" d="M360.73,84.95L360.73,84.95l-0.04-0.04c-0.01-0.01-0.03-0.03-0.04-0.04l0,0L326.47,54l-68.26,75.56
	c-27.12,30.02-73.61,32.38-103.63,5.26c-30.02-27.12-32.38-73.61-5.26-103.64L115.05,0.24c-44.19,48.91-40.34,124.66,8.57,168.85
	c20.53,18.54,45.79,28.52,71.45,30.36l-21.14,23.41c-27.12,30.02-73.61,32.38-103.63,5.26c-30.02-27.12-32.38-73.61-5.26-103.64
	L30.78,93.53c-44.19,48.91-40.34,124.66,8.57,168.85c46.02,41.57,115.68,40.46,160.57-0.54l0.45,0.45
	c48.91,44.19,124.66,40.34,168.85-8.57C413.38,204.83,409.56,129.15,360.73,84.95z M231.41,228.1l98.37-108.89
	c29.94,27.13,32.28,73.56,5.18,103.55S261.44,255.14,231.41,228.1z"/>
</svg>
