<?xml version="1.0" encoding="utf-8"?>
<!-- Generator: Adobe Illustrator 23.0.1, SVG Export Plug-In . SVG Version: 6.00 Build 0)  -->
<svg width="400px" version="1.1" id="Layer_1" xmlns="http://www.w3.org/2000/svg" xmlns:xlink="http://www.w3.org/1999/xlink" x="0px" y="0px"
	 viewBox="0 0 500 359.43" style="enable-background:new 0 0 500 359.43;" xml:space="preserve">
<style type="text/css">
	.st0{fill:#F15A24;}
	.st1{fill:#F48134;}
</style>
<g>
	<g>
		<path class="st0" d="M318.94,32.91c-0.84-1.46-2.71-1.96-4.17-1.12l-55.1,31.81l-55.1-31.81c-1.46-0.84-3.33-0.34-4.17,1.12
			c-0.84,1.46-0.34,3.33,1.12,4.17l55.1,31.81v63.62c0,1.69,1.37,3.06,3.06,3.06c1.69,0,3.06-1.37,3.06-3.06V68.89l55.1-31.81
			C319.29,36.24,319.79,34.37,318.94,32.91z"/>
		<g>
			<path class="st1" d="M270.87,128.16c-0.74,0-1.46-0.38-1.85-1.07c-0.59-1.02-0.24-2.33,0.78-2.92l44.36-25.58l-0.1-50.7
				c0-1.18,0.95-2.14,2.13-2.14c0,0,0,0,0,0c1.18,0,2.14,0.95,2.14,2.13l0.1,51.94c0,0.77-0.41,1.47-1.07,1.86l-45.43,26.2
				C271.6,128.07,271.23,128.16,270.87,128.16z"/>
		</g>
		<g>
			<path class="st1" d="M248.34,128.16c0.74,0,1.46-0.38,1.85-1.07c0.59-1.02,0.24-2.33-0.78-2.92l-44.36-25.58l0.1-50.7
				c0-1.18-0.95-2.14-2.13-2.14c0,0,0,0,0,0c-1.18,0-2.14,0.95-2.14,2.13l-0.1,51.94c0,0.77,0.41,1.47,1.07,1.86l45.43,26.2
				C247.61,128.07,247.98,128.16,248.34,128.16z"/>
		</g>
		<g>
			<path class="st1" d="M304.87,29.7c-0.36,0-0.72-0.09-1.06-0.28L259.67,4.21l-44.14,25.21c-1.03,0.59-2.33,0.23-2.92-0.8
				c-0.59-1.03-0.23-2.33,0.8-2.92l45.2-25.82c0.66-0.38,1.46-0.38,2.12,0l45.2,25.82c1.03,0.59,1.38,1.89,0.8,2.92
				C306.34,29.31,305.62,29.7,304.87,29.7z"/>
		</g>
	</g>
	<g>
		<g>
			<path class="st0" d="M67.31,315.88h-0.2v2.76c0,1.58-0.27,3.68-0.79,6.32c-0.53,2.63-1.91,5.26-4.15,7.9
				c-2.24,2.63-5.6,4.9-10.07,6.81c-4.48,1.91-10.66,2.86-18.56,2.86c-7.9,0-14.08-0.96-18.56-2.86c-4.48-1.91-7.83-4.18-10.07-6.81
				c-2.24-2.63-3.62-5.3-4.15-8c-0.53-2.7-0.79-4.77-0.79-6.22v-5.13h16.78v1.78c0,1.18,0.16,2.47,0.49,3.85
				c0.33,1.38,1.09,2.73,2.27,4.05c1.18,1.31,2.86,2.4,5.03,3.26c2.17,0.85,5.03,1.28,8.59,1.28c3.81,0,6.84-0.43,9.08-1.28
				c2.24-0.86,3.98-1.88,5.23-3.06c1.25-1.18,2.07-2.47,2.47-3.85c0.39-1.38,0.59-2.67,0.59-3.85v-0.2v-3.55
				c0-1.58-0.3-2.96-0.89-4.15c-0.59-1.18-1.28-2.24-2.07-3.16c-0.79-0.92-1.61-1.61-2.47-2.07c-0.86-0.46-1.55-0.82-2.07-1.09
				c-0.53-0.13-1.84-0.59-3.95-1.38c-2.11-0.79-4.54-1.68-7.3-2.67c-2.76-0.99-5.69-2-8.78-3.06c-3.09-1.05-5.82-1.97-8.19-2.76
				c-4.74-1.71-8.39-4.61-10.96-8.69C1.28,278.83,0,274.29,0,269.29v-4.54v-67.12h16.78v67.12v0.99c0,2.5,0.49,4.57,1.48,6.22
				c0.99,1.65,2.07,2.99,3.26,4.05c1.45,1.18,2.96,2.11,4.54,2.76c2.1,0.79,4.34,1.58,6.71,2.37c1.97,0.66,4.11,1.41,6.42,2.27
				c2.3,0.86,4.44,1.61,6.42,2.27c1.05,0.26,2.07,0.72,3.06,1.38c0.99,0.66,1.61,1.71,1.88,3.16v-24.48v-0.99v-67.12h16.78V315.88z"
				/>
			<path class="st0" d="M153.77,275.02v3.16c0,1.58-0.27,3.69-0.79,6.32c-0.53,2.63-1.91,5.26-4.15,7.9
				c-2.24,2.63-5.6,4.9-10.07,6.81c-4.48,1.9-10.66,2.86-18.56,2.86c-7.9,0-14.08-0.96-18.56-2.86c-4.48-1.91-7.83-4.18-10.07-6.81
				c-2.24-2.63-3.62-5.3-4.15-8c-0.53-2.7-0.79-4.77-0.79-6.22V276v-56.26c0-1.45,0.26-3.52,0.79-6.22c0.52-2.7,1.91-5.36,4.15-8
				c2.24-2.63,5.59-4.9,10.07-6.81c4.47-1.9,10.66-2.86,18.56-2.86c7.9,0,14.08,0.96,18.56,2.86c4.47,1.91,7.83,4.18,10.07,6.81
				c2.24,2.64,3.62,5.27,4.15,7.9c0.52,2.63,0.79,4.74,0.79,6.32V275.02z M136.99,273.04v-48.17v-2.17c0-1.18-0.2-2.47-0.59-3.85
				c-0.4-1.38-1.22-2.66-2.47-3.85c-1.25-1.18-2.99-2.2-5.23-3.06c-2.24-0.85-5.26-1.28-9.08-1.28c-3.55,0-6.42,0.43-8.59,1.28
				c-2.17,0.86-3.85,1.91-5.03,3.16c-1.18,1.25-1.94,2.6-2.27,4.05c-0.33,1.45-0.49,2.7-0.49,3.75v1.97v48.17v1.97
				c0,1.05,0.16,2.3,0.49,3.75c0.33,1.45,1.09,2.8,2.27,4.05c1.18,1.25,2.86,2.3,5.03,3.16c2.17,0.86,5.03,1.28,8.59,1.28
				c3.82,0,6.84-0.43,9.08-1.28c2.24-0.85,3.98-1.87,5.23-3.06c1.25-1.18,2.07-2.47,2.47-3.85c0.39-1.38,0.59-2.67,0.59-3.85V273.04
				z"/>
			<path class="st0" d="M240.23,273.44v4.74c0,3.29-0.63,6.38-1.88,9.28c-1.25,2.9-3.26,5.43-6.02,7.6
				c-2.76,2.17-6.25,3.88-10.46,5.13c-4.21,1.25-9.28,1.88-15.2,1.88c-11.58,0-20.04-2.27-25.37-6.81
				c-5.33-4.54-8.06-10.17-8.19-16.88v-121h16.78v25.27v3.55c0,1.58,0.26,2.96,0.79,4.14c0.52,1.18,1.18,2.24,1.97,3.16
				c0.79,0.92,1.61,1.61,2.47,2.07c0.85,0.46,1.55,0.82,2.07,1.09c0.52,0.13,1.84,0.59,3.95,1.38c2.1,0.79,4.57,1.68,7.4,2.67
				c2.83,0.99,5.76,2.01,8.78,3.06c3.03,1.05,5.72,1.97,8.09,2.76c4.74,1.71,8.39,4.61,10.96,8.68c2.57,4.08,3.85,8.62,3.85,13.62
				v4.74V273.44z M223.65,233.56h-0.2v-1.18c0-2.5-0.46-4.57-1.38-6.22c-0.92-1.65-1.97-2.99-3.16-4.05
				c-1.45-1.18-3.03-2.1-4.74-2.76c-2.11-0.79-4.34-1.58-6.71-2.37c-1.97-0.66-4.08-1.41-6.32-2.27c-2.24-0.85-4.41-1.61-6.51-2.27
				c-0.92-0.26-1.88-0.72-2.86-1.38c-0.99-0.66-1.61-1.71-1.88-3.16v24.48v1.18v41.85v-0.2c0,1.32,0.26,2.7,0.79,4.15
				c0.52,1.45,1.41,2.76,2.66,3.95c1.25,1.18,2.96,2.14,5.13,2.86c2.17,0.72,4.9,1.09,8.19,1.09c6.32,0,10.69-1.28,13.13-3.85
				c2.43-2.57,3.72-5.56,3.85-8.98V233.56z"/>
			<path class="st0" d="M293.13,195.86c11.58,0,20.07,2.27,25.46,6.81c5.4,4.54,8.09,10.23,8.09,17.07v9.48v43.23v5.72
				c0,2.37-0.43,4.97-1.28,7.8c-0.86,2.83-2.53,5.43-5.03,7.8c-2.5,2.37-5.92,4.34-10.27,5.92c-4.34,1.58-10,2.37-16.98,2.37
				c-6.98,0-12.63-0.79-16.98-2.37c-4.34-1.58-7.77-3.55-10.26-5.92c-2.5-2.37-4.18-4.97-5.03-7.8c-0.86-2.83-1.28-5.43-1.28-7.8
				v-9.28c0-5,1.28-9.54,3.85-13.62c2.57-4.08,6.22-6.97,10.96-8.69c2.37-0.79,5.06-1.71,8.09-2.76c3.03-1.05,5.95-2.07,8.78-3.06
				c2.83-0.99,5.3-1.87,7.4-2.67c2.1-0.79,3.42-1.25,3.95-1.38c0.52-0.26,1.22-0.62,2.07-1.09c0.85-0.46,1.68-1.15,2.47-2.07
				c0.79-0.92,1.48-1.97,2.07-3.16c0.59-1.18,0.89-2.57,0.89-4.15v-3.75c0-1.31-0.26-2.67-0.79-4.05c-0.53-1.38-1.45-2.67-2.76-3.85
				c-1.32-1.18-3.06-2.14-5.23-2.86c-2.17-0.72-4.9-1.09-8.19-1.09c-6.58,0-11.02,1.35-13.32,4.05c-2.3,2.7-3.45,5.96-3.45,9.77
				h-16.78v-4.74c0-3.29,0.62-6.38,1.88-9.28c1.25-2.89,3.26-5.43,6.02-7.6c2.76-2.17,6.25-3.88,10.46-5.13
				C282.14,196.49,287.21,195.86,293.13,195.86z M310.11,248.17c-0.26,1.32-0.92,2.3-1.97,2.96c-1.05,0.66-2.04,1.12-2.96,1.38
				c-1.97,0.66-4.11,1.41-6.42,2.27c-2.3,0.86-4.44,1.61-6.41,2.27c-2.37,0.79-4.61,1.58-6.71,2.37c-1.58,0.66-3.09,1.58-4.54,2.76
				c-1.18,1.05-2.27,2.4-3.26,4.05c-0.99,1.65-1.48,3.72-1.48,6.22c0,5,1.18,8.72,3.55,11.15c2.37,2.44,6.78,3.65,13.23,3.65
				c6.58,0,11.05-1.28,13.42-3.85c2.37-2.57,3.55-6.22,3.55-10.96V248.17z"/>
			<path class="st0" d="M413.34,300.48h-16.78v-75.8v-1.78c0-1.18-0.17-2.47-0.49-3.85c-0.33-1.38-1.09-2.7-2.27-3.95
				c-1.18-1.25-2.86-2.3-5.03-3.16c-2.17-0.85-5.03-1.28-8.59-1.28c-3.69,0-6.68,0.43-8.98,1.28c-2.3,0.86-4.08,1.87-5.33,3.06
				c-1.25,1.18-2.07,2.47-2.47,3.85c-0.39,1.38-0.59,2.6-0.59,3.65v2.17v75.8h-16.78V223.3v-3.55c0-1.58,0.26-3.68,0.79-6.32
				c0.52-2.63,1.94-5.26,4.24-7.9c2.3-2.63,5.69-4.9,10.17-6.81c4.47-1.9,10.66-2.86,18.56-2.86c7.9,0,14.08,0.96,18.56,2.86
				c4.47,1.91,7.83,4.18,10.07,6.81c2.24,2.64,3.62,5.3,4.14,8c0.52,2.7,0.79,4.77,0.79,6.22v1.97V300.48z"/>
			<path class="st0" d="M500,315.88h-0.2v2.76c0,1.58-0.26,3.68-0.79,6.32c-0.53,2.63-1.91,5.26-4.15,7.9
				c-2.24,2.63-5.6,4.9-10.07,6.81c-4.48,1.91-10.66,2.86-18.56,2.86s-14.08-0.96-18.56-2.86c-4.48-1.91-7.83-4.18-10.07-6.81
				c-2.24-2.63-3.62-5.3-4.15-8c-0.53-2.7-0.79-4.77-0.79-6.22v-5.13h16.78v1.78c0,1.18,0.16,2.47,0.49,3.85
				c0.33,1.38,1.09,2.73,2.27,4.05c1.18,1.31,2.86,2.4,5.03,3.26c2.17,0.85,5.03,1.28,8.59,1.28c3.81,0,6.84-0.43,9.08-1.28
				c2.24-0.86,3.98-1.88,5.23-3.06c1.25-1.18,2.07-2.47,2.47-3.85c0.4-1.38,0.59-2.67,0.59-3.85v-0.2v-3.55
				c0-1.58-0.3-2.96-0.89-4.15c-0.59-1.18-1.28-2.24-2.07-3.16c-0.79-0.92-1.61-1.61-2.47-2.07c-0.86-0.46-1.55-0.82-2.07-1.09
				c-0.53-0.13-1.84-0.59-3.95-1.38c-2.11-0.79-4.54-1.68-7.3-2.67c-2.76-0.99-5.69-2-8.78-3.06c-3.09-1.05-5.82-1.97-8.19-2.76
				c-4.74-1.71-8.39-4.61-10.95-8.69c-2.57-4.08-3.85-8.62-3.85-13.62v-4.54v-67.12h16.78v67.12v0.99c0,2.5,0.49,4.57,1.48,6.22
				c0.99,1.65,2.07,2.99,3.26,4.05c1.45,1.18,2.96,2.11,4.54,2.76c2.1,0.79,4.34,1.58,6.71,2.37c1.97,0.66,4.11,1.41,6.41,2.27
				c2.3,0.86,4.44,1.61,6.42,2.27c1.05,0.26,2.07,0.72,3.06,1.38c0.99,0.66,1.61,1.71,1.88,3.16v-24.48v-0.99v-67.12H500V315.88z"/>
		</g>
		<g>
			<path class="st1" d="M101.12,327.76h3.67v3.06h-3.67v19.46h-3.67v-19.46H94.7v-3.06h2.76v-3.06v-0.82c0-0.32,0.06-0.77,0.17-1.36
				c0.11-0.59,0.42-1.17,0.91-1.75c0.49-0.58,1.22-1.07,2.2-1.49c0.98-0.42,2.33-0.62,4.05-0.62c0.46,0,0.88-0.01,1.25-0.02
				c0.37-0.01,0.76,0.01,1.16,0.06l-0.82,3.11c-0.34,0.03-0.63,0.04-0.86,0.04c-0.23,0-0.5,0.02-0.82,0.04
				c-0.81,0-1.44,0.09-1.92,0.28s-0.83,0.42-1.08,0.69c-0.24,0.27-0.4,0.56-0.47,0.86c-0.07,0.3-0.11,0.58-0.11,0.84v0.39V327.76z"
				/>
			<path class="st1" d="M116.7,327.46c0.49,0,0.91-0.01,1.27-0.02c0.36-0.01,0.74,0.01,1.14,0.06l-0.82,3.15
				c-0.34,0-0.63,0.01-0.86,0.02c-0.23,0.01-0.5,0.02-0.82,0.02c-0.78,0-1.4,0.1-1.88,0.3c-0.47,0.2-0.84,0.44-1.1,0.71
				c-0.26,0.27-0.42,0.56-0.5,0.86c-0.07,0.3-0.11,0.58-0.11,0.84v0.39v16.48h-3.67v-16.61v-0.99c0-0.32,0.06-0.77,0.17-1.36
				c0.11-0.59,0.42-1.17,0.91-1.75c0.49-0.58,1.22-1.07,2.2-1.49C113.62,327.66,114.97,327.46,116.7,327.46z"/>
			<path class="st1" d="M136.37,344.71v0.69c0,0.35-0.06,0.81-0.17,1.38c-0.12,0.58-0.42,1.15-0.91,1.72
				c-0.49,0.58-1.22,1.07-2.2,1.49c-0.98,0.42-2.33,0.62-4.06,0.62c-1.73,0-3.08-0.21-4.05-0.62c-0.98-0.42-1.71-0.91-2.2-1.49
				c-0.49-0.57-0.79-1.16-0.91-1.75c-0.12-0.59-0.17-1.04-0.17-1.36v-0.47v-12.3c0-0.32,0.06-0.77,0.17-1.36
				c0.11-0.59,0.42-1.17,0.91-1.75c0.49-0.57,1.22-1.07,2.2-1.49c0.98-0.42,2.33-0.63,4.05-0.63c1.73,0,3.08,0.21,4.06,0.63
				c0.98,0.42,1.71,0.91,2.2,1.49c0.49,0.58,0.79,1.15,0.91,1.73c0.11,0.58,0.17,1.03,0.17,1.38V344.71z M132.7,344.28v-10.53v-0.47
				c0-0.26-0.04-0.54-0.13-0.84c-0.09-0.3-0.27-0.58-0.54-0.84c-0.27-0.26-0.65-0.48-1.14-0.67c-0.49-0.19-1.15-0.28-1.98-0.28
				c-0.78,0-1.4,0.09-1.88,0.28c-0.47,0.19-0.84,0.42-1.1,0.69c-0.26,0.27-0.42,0.57-0.5,0.88c-0.07,0.32-0.11,0.59-0.11,0.82v0.43
				v10.53v0.43c0,0.23,0.04,0.5,0.11,0.82c0.07,0.32,0.24,0.61,0.5,0.88c0.26,0.27,0.63,0.5,1.1,0.69c0.47,0.19,1.1,0.28,1.88,0.28
				c0.83,0,1.5-0.09,1.98-0.28c0.49-0.19,0.87-0.41,1.14-0.67c0.27-0.26,0.45-0.54,0.54-0.84c0.09-0.3,0.13-0.58,0.13-0.84V344.28z"
				/>
			<path class="st1" d="M155.3,350.27h-3.67v-16.56v-0.39c0-0.26-0.04-0.54-0.11-0.84c-0.07-0.3-0.24-0.59-0.5-0.86
				c-0.26-0.27-0.63-0.5-1.1-0.69c-0.47-0.19-1.1-0.28-1.88-0.28c-0.81,0-1.46,0.09-1.96,0.28c-0.5,0.19-0.89,0.41-1.16,0.67
				c-0.27,0.26-0.45,0.54-0.54,0.84c-0.09,0.3-0.13,0.57-0.13,0.8v0.47v16.56h-3.67v-16.87v-0.78c0-0.34,0.06-0.8,0.17-1.38
				c0.11-0.58,0.42-1.15,0.93-1.73c0.5-0.57,1.24-1.07,2.22-1.49c0.98-0.42,2.33-0.63,4.05-0.63c1.73,0,3.08,0.21,4.06,0.63
				c0.98,0.42,1.71,0.91,2.2,1.49c0.49,0.58,0.79,1.16,0.91,1.75c0.11,0.59,0.17,1.04,0.17,1.36v0.43V350.27z"/>
			<path class="st1" d="M169.67,347.04v3.24c-1.73,0-3.08-0.21-4.05-0.62c-0.98-0.42-1.72-0.91-2.22-1.49
				c-0.5-0.57-0.81-1.16-0.93-1.75c-0.12-0.59-0.17-1.04-0.17-1.36v-0.77v-13.81h-2.76v-3.06h2.76v-5.74h3.67v5.74h3.71v3.06h-3.71
				v13.46v0.39c0,0.26,0.04,0.54,0.11,0.84c0.07,0.3,0.24,0.6,0.5,0.88c0.26,0.29,0.63,0.53,1.1,0.71c0.47,0.19,1.1,0.28,1.88,0.28
				H169.67z"/>
			<path class="st1" d="M187.36,337.98v3.06h-14.67v-3.06H187.36z"/>
			<path class="st1" d="M198.96,327.41c1.73,0,3.08,0.21,4.06,0.63c0.98,0.42,1.71,0.91,2.2,1.49c0.49,0.58,0.79,1.16,0.91,1.75
				c0.11,0.59,0.17,1.04,0.17,1.36v1.08v0.04v0.95c0,0.49-0.09,1.03-0.28,1.64c-0.19,0.6-0.63,1.25-1.32,1.94
				c-0.32,0.34-0.68,0.6-1.08,0.78c-0.4,0.17-0.76,0.3-1.08,0.39c-0.37,0.12-0.76,0.17-1.16,0.17h-3.28c-0.75,0-1.41,0.27-1.98,0.82
				c-0.58,0.55-0.86,1.22-0.86,2.03v1.94c0,0.69,0.13,1.24,0.39,1.64c0.11,0.2,0.24,0.38,0.39,0.52c0.14,0.14,0.36,0.27,0.65,0.39
				c0.23,0.12,0.52,0.22,0.88,0.3c0.36,0.09,0.83,0.13,1.4,0.13c0.75,0,1.34-0.08,1.77-0.24c0.43-0.16,0.73-0.3,0.91-0.41
				c0.37-0.29,0.63-0.63,0.78-1.04c0.14-0.4,0.22-0.83,0.22-1.29h3.67v1.04c0,0.77-0.17,1.5-0.5,2.16
				c-0.33,0.66-0.84,1.24-1.53,1.72c-0.49,0.35-1.16,0.65-2.03,0.91s-1.96,0.39-3.28,0.39c-0.98,0-1.83-0.08-2.54-0.24
				c-0.72-0.16-1.34-0.36-1.88-0.6c-0.53-0.25-0.97-0.53-1.32-0.84c-0.34-0.32-0.63-0.63-0.86-0.95c-0.52-0.75-0.76-1.61-0.73-2.59
				v-0.99v-1.94v-8.71v-0.04v-1.08c0-0.34,0.06-0.8,0.17-1.38c0.11-0.58,0.42-1.15,0.91-1.73c0.49-0.57,1.22-1.07,2.2-1.49
				C195.88,327.62,197.23,327.41,198.96,327.41z M202.63,333.71v-0.39c0-0.26-0.04-0.54-0.11-0.84c-0.07-0.3-0.24-0.59-0.5-0.86
				c-0.26-0.27-0.63-0.5-1.1-0.69c-0.47-0.19-1.1-0.28-1.88-0.28c-0.81,0-1.46,0.09-1.96,0.28c-0.5,0.19-0.89,0.41-1.16,0.67
				c-0.27,0.26-0.45,0.54-0.54,0.84c-0.09,0.3-0.13,0.57-0.13,0.8v0.47v0.04v0.34v3.62c0.06-0.26,0.19-0.47,0.39-0.62
				c0.2-0.16,0.43-0.28,0.69-0.37c0.26-0.09,0.52-0.14,0.78-0.17c0.26-0.03,0.46-0.04,0.6-0.04h2.46c0.66,0,1.24-0.24,1.73-0.71
				c0.49-0.47,0.73-1.04,0.73-1.7v-0.34V333.71z"/>
			<path class="st1" d="M224.45,350.27h-3.67v-16.56v-0.39c0-0.26-0.04-0.54-0.11-0.84c-0.07-0.3-0.24-0.59-0.5-0.86
				c-0.26-0.27-0.63-0.5-1.1-0.69c-0.47-0.19-1.1-0.28-1.88-0.28c-0.81,0-1.46,0.09-1.96,0.28c-0.5,0.19-0.89,0.41-1.16,0.67
				c-0.27,0.26-0.45,0.54-0.54,0.84c-0.09,0.3-0.13,0.57-0.13,0.8v0.47v16.56h-3.67v-16.87v-0.78c0-0.34,0.06-0.8,0.17-1.38
				c0.11-0.58,0.42-1.15,0.93-1.73c0.5-0.57,1.24-1.07,2.22-1.49c0.98-0.42,2.33-0.63,4.05-0.63c1.73,0,3.08,0.21,4.06,0.63
				c0.98,0.42,1.71,0.91,2.2,1.49c0.49,0.58,0.79,1.16,0.91,1.75c0.11,0.59,0.17,1.04,0.17,1.36v0.43V350.27z"/>
			<path class="st1" d="M243.35,345.44c-0.03,1.5-0.63,2.74-1.81,3.73c-1.18,0.99-3.02,1.49-5.52,1.49c-1.29,0-2.41-0.14-3.34-0.41
				c-0.94-0.27-1.7-0.65-2.31-1.12c-0.6-0.47-1.04-1.03-1.32-1.66c-0.27-0.63-0.41-1.31-0.41-2.03v-1.04h0.04v-8.76h-0.04v-0.99
				c0-1.09,0.28-2.09,0.84-2.98c0.56-0.89,1.37-1.53,2.44-1.9c0.52-0.17,1.11-0.37,1.77-0.6c0.66-0.23,1.29-0.45,1.9-0.67
				c0.6-0.22,1.14-0.41,1.6-0.58c0.46-0.17,0.75-0.27,0.86-0.3c0.11-0.06,0.27-0.14,0.45-0.24c0.19-0.1,0.37-0.25,0.54-0.45
				c0.17-0.2,0.32-0.43,0.45-0.69c0.13-0.26,0.19-0.56,0.19-0.9v-0.82V319h3.67V345.44z M236.01,347.43c0.72,0,1.32-0.08,1.79-0.24
				c0.47-0.16,0.85-0.37,1.12-0.62c0.27-0.26,0.47-0.55,0.58-0.86c0.11-0.32,0.17-0.62,0.17-0.9v-9.15v-0.22v-5.35
				c-0.06,0.32-0.19,0.55-0.41,0.69s-0.44,0.25-0.67,0.3c-0.43,0.14-0.9,0.3-1.4,0.47c-0.5,0.17-0.97,0.33-1.4,0.47
				c-0.52,0.17-1.01,0.34-1.47,0.52c-0.34,0.14-0.68,0.36-0.99,0.65c-0.26,0.23-0.5,0.53-0.71,0.88c-0.22,0.36-0.32,0.81-0.32,1.36
				v0.22v8.93c0.03,0.38,0.11,0.73,0.24,1.08c0.13,0.34,0.33,0.65,0.6,0.91c0.27,0.26,0.65,0.47,1.12,0.62
				C234.74,347.35,235.32,347.43,236.01,347.43z"/>
			<path class="st1" d="M270.87,345.44c-0.03,1.5-0.63,2.74-1.81,3.73c-1.18,0.99-3.02,1.49-5.52,1.49c-1.29,0-2.41-0.14-3.34-0.41
				c-0.94-0.27-1.7-0.65-2.31-1.12c-0.6-0.47-1.04-1.03-1.32-1.66c-0.27-0.63-0.41-1.31-0.41-2.03v-1.04h0.04v-8.76h-0.04v-0.99
				c0-1.09,0.28-2.09,0.84-2.98c0.56-0.89,1.37-1.53,2.44-1.9c0.52-0.17,1.11-0.37,1.77-0.6c0.66-0.23,1.29-0.45,1.9-0.67
				c0.6-0.22,1.14-0.41,1.6-0.58c0.46-0.17,0.75-0.27,0.86-0.3c0.12-0.06,0.27-0.14,0.45-0.24c0.19-0.1,0.37-0.25,0.54-0.45
				c0.17-0.2,0.32-0.43,0.45-0.69c0.13-0.26,0.19-0.56,0.19-0.9v-0.82V319h3.67V345.44z M263.53,347.43c0.72,0,1.32-0.08,1.79-0.24
				c0.47-0.16,0.85-0.37,1.12-0.62c0.27-0.26,0.47-0.55,0.58-0.86c0.12-0.32,0.17-0.62,0.17-0.9v-9.15v-0.22v-5.35
				c-0.06,0.32-0.19,0.55-0.41,0.69c-0.22,0.14-0.44,0.25-0.67,0.3c-0.43,0.14-0.9,0.3-1.4,0.47c-0.5,0.17-0.97,0.33-1.4,0.47
				c-0.52,0.17-1.01,0.34-1.47,0.52c-0.34,0.14-0.68,0.36-0.99,0.65c-0.26,0.23-0.5,0.53-0.71,0.88c-0.22,0.36-0.32,0.81-0.32,1.36
				v0.22v8.93c0.03,0.38,0.11,0.73,0.24,1.08c0.13,0.34,0.33,0.65,0.6,0.91c0.27,0.26,0.65,0.47,1.12,0.62
				C262.26,347.35,262.85,347.43,263.53,347.43z"/>
			<path class="st1" d="M282.47,327.41c1.73,0,3.08,0.21,4.06,0.63c0.98,0.42,1.71,0.91,2.2,1.49c0.49,0.58,0.79,1.16,0.91,1.75
				c0.11,0.59,0.17,1.04,0.17,1.36v1.08v0.04v0.95c0,0.49-0.09,1.03-0.28,1.64c-0.19,0.6-0.62,1.25-1.31,1.94
				c-0.32,0.34-0.68,0.6-1.08,0.78c-0.4,0.17-0.76,0.3-1.08,0.39c-0.37,0.12-0.76,0.17-1.16,0.17h-3.28c-0.75,0-1.41,0.27-1.98,0.82
				c-0.58,0.55-0.86,1.22-0.86,2.03v1.94c0,0.69,0.13,1.24,0.39,1.64c0.12,0.2,0.24,0.38,0.39,0.52c0.14,0.14,0.36,0.27,0.65,0.39
				c0.23,0.12,0.52,0.22,0.88,0.3c0.36,0.09,0.83,0.13,1.4,0.13c0.75,0,1.34-0.08,1.77-0.24s0.73-0.3,0.91-0.41
				c0.37-0.29,0.63-0.63,0.78-1.04c0.14-0.4,0.22-0.83,0.22-1.29h3.67v1.04c0,0.77-0.17,1.5-0.5,2.16
				c-0.33,0.66-0.84,1.24-1.53,1.72c-0.49,0.35-1.16,0.65-2.03,0.91c-0.86,0.26-1.96,0.39-3.28,0.39c-0.98,0-1.83-0.08-2.54-0.24
				c-0.72-0.16-1.35-0.36-1.88-0.6c-0.53-0.25-0.97-0.53-1.32-0.84c-0.34-0.32-0.63-0.63-0.86-0.95c-0.52-0.75-0.76-1.61-0.73-2.59
				v-0.99v-1.94v-8.71v-0.04v-1.08c0-0.34,0.06-0.8,0.17-1.38c0.11-0.58,0.42-1.15,0.9-1.73c0.49-0.57,1.22-1.07,2.2-1.49
				C279.39,327.62,280.75,327.41,282.47,327.41z M286.14,333.71v-0.39c0-0.26-0.04-0.54-0.11-0.84c-0.07-0.3-0.24-0.59-0.5-0.86
				c-0.26-0.27-0.62-0.5-1.1-0.69c-0.47-0.19-1.1-0.28-1.88-0.28c-0.81,0-1.46,0.09-1.96,0.28c-0.5,0.19-0.89,0.41-1.17,0.67
				c-0.27,0.26-0.45,0.54-0.54,0.84c-0.09,0.3-0.13,0.57-0.13,0.8v0.47v0.04v0.34v3.62c0.06-0.26,0.19-0.47,0.39-0.62
				c0.2-0.16,0.43-0.28,0.69-0.37c0.26-0.09,0.52-0.14,0.78-0.17c0.26-0.03,0.46-0.04,0.6-0.04h2.46c0.66,0,1.24-0.24,1.73-0.71
				c0.49-0.47,0.73-1.04,0.73-1.7v-0.34V333.71z"/>
			<path class="st1" d="M307.92,346.95c0,0.37-0.04,0.71-0.11,1.01c-0.07,0.3-0.17,0.58-0.3,0.84c-0.13,0.26-0.32,0.52-0.58,0.78
				c-0.52,0.52-1.18,0.87-1.98,1.06c-0.81,0.19-1.55,0.16-2.24-0.06c-0.72-0.26-1.5-0.54-2.35-0.84c-0.85-0.3-1.65-0.57-2.39-0.8
				c-0.2-0.09-0.48-0.19-0.84-0.3c-0.36-0.11-0.57-0.19-0.62-0.22c-0.35-0.12-0.7-0.26-1.08-0.43c-0.37-0.17-0.72-0.42-1.03-0.73
				c-0.32-0.32-0.58-0.74-0.8-1.27c-0.22-0.53-0.32-1.2-0.32-2v-16.09h3.62v14.62v0.26c0,0.58,0.12,1.06,0.37,1.45
				c0.24,0.39,0.55,0.7,0.91,0.95c0.36,0.25,0.76,0.44,1.21,0.58c0.45,0.14,0.86,0.29,1.23,0.43c0.86,0.29,1.54,0.47,2.03,0.56
				c0.49,0.09,0.86,0.07,1.1-0.04c0.24-0.11,0.39-0.32,0.45-0.62c0.06-0.3,0.09-0.7,0.09-1.19v-3.24v-13.76h3.67v13.29v4.36
				C307.92,346.08,307.92,346.55,307.92,346.95z"/>
			<path class="st1" d="M319.57,327.41c1.73,0,3.08,0.21,4.06,0.63c0.98,0.42,1.71,0.91,2.2,1.49c0.49,0.58,0.79,1.16,0.91,1.75
				c0.11,0.59,0.17,1.04,0.17,1.36v1.08v0.04v0.95c0,0.49-0.09,1.03-0.28,1.64c-0.19,0.6-0.63,1.25-1.32,1.94
				c-0.32,0.34-0.68,0.6-1.08,0.78c-0.4,0.17-0.76,0.3-1.08,0.39c-0.37,0.12-0.76,0.17-1.16,0.17h-3.28c-0.75,0-1.41,0.27-1.99,0.82
				c-0.58,0.55-0.86,1.22-0.86,2.03v1.94c0,0.69,0.13,1.24,0.39,1.64c0.11,0.2,0.24,0.38,0.39,0.52c0.14,0.14,0.36,0.27,0.65,0.39
				c0.23,0.12,0.52,0.22,0.88,0.3c0.36,0.09,0.83,0.13,1.4,0.13c0.75,0,1.34-0.08,1.77-0.24c0.43-0.16,0.73-0.3,0.91-0.41
				c0.37-0.29,0.63-0.63,0.78-1.04c0.14-0.4,0.22-0.83,0.22-1.29h3.67v1.04c0,0.77-0.17,1.5-0.5,2.16
				c-0.33,0.66-0.84,1.24-1.53,1.72c-0.49,0.35-1.16,0.65-2.03,0.91c-0.86,0.26-1.96,0.39-3.28,0.39c-0.98,0-1.83-0.08-2.54-0.24
				c-0.72-0.16-1.35-0.36-1.88-0.6c-0.53-0.25-0.97-0.53-1.32-0.84s-0.63-0.63-0.86-0.95c-0.52-0.75-0.76-1.61-0.73-2.59v-0.99
				v-1.94v-8.71v-0.04v-1.08c0-0.34,0.06-0.8,0.17-1.38c0.11-0.58,0.42-1.15,0.91-1.73c0.49-0.57,1.22-1.07,2.2-1.49
				C316.49,327.62,317.84,327.41,319.57,327.41z M323.24,333.71v-0.39c0-0.26-0.04-0.54-0.11-0.84c-0.07-0.3-0.24-0.59-0.5-0.86
				c-0.26-0.27-0.63-0.5-1.1-0.69c-0.47-0.19-1.1-0.28-1.88-0.28c-0.81,0-1.46,0.09-1.96,0.28c-0.5,0.19-0.89,0.41-1.16,0.67
				c-0.27,0.26-0.45,0.54-0.54,0.84c-0.09,0.3-0.13,0.57-0.13,0.8v0.47v0.04v0.34v3.62c0.06-0.26,0.19-0.47,0.39-0.62
				c0.2-0.16,0.43-0.28,0.69-0.37c0.26-0.09,0.52-0.14,0.78-0.17c0.26-0.03,0.46-0.04,0.6-0.04h2.46c0.66,0,1.24-0.24,1.73-0.71
				c0.49-0.47,0.73-1.04,0.73-1.7v-0.34V333.71z"/>
			<path class="st1" d="M331.48,319h3.62v31.27h-3.62V319z"/>
			<path class="st1" d="M353.99,344.71v0.69c0,0.35-0.06,0.81-0.17,1.38c-0.11,0.58-0.42,1.15-0.91,1.72
				c-0.49,0.58-1.22,1.07-2.2,1.49c-0.98,0.42-2.33,0.62-4.05,0.62s-3.08-0.21-4.06-0.62c-0.98-0.42-1.71-0.91-2.2-1.49
				c-0.49-0.57-0.79-1.16-0.91-1.75c-0.12-0.59-0.17-1.04-0.17-1.36v-0.47v-12.3c0-0.32,0.06-0.77,0.17-1.36
				c0.11-0.59,0.42-1.17,0.91-1.75c0.49-0.57,1.22-1.07,2.2-1.49c0.98-0.42,2.33-0.63,4.06-0.63s3.08,0.21,4.05,0.63
				c0.98,0.42,1.71,0.91,2.2,1.49c0.49,0.58,0.79,1.15,0.91,1.73c0.11,0.58,0.17,1.03,0.17,1.38V344.71z M350.33,344.28v-10.53
				v-0.47c0-0.26-0.04-0.54-0.13-0.84c-0.09-0.3-0.27-0.58-0.54-0.84c-0.27-0.26-0.65-0.48-1.14-0.67
				c-0.49-0.19-1.15-0.28-1.98-0.28c-0.78,0-1.4,0.09-1.88,0.28c-0.47,0.19-0.84,0.42-1.1,0.69c-0.26,0.27-0.43,0.57-0.5,0.88
				c-0.07,0.32-0.11,0.59-0.11,0.82v0.43v10.53v0.43c0,0.23,0.04,0.5,0.11,0.82c0.07,0.32,0.24,0.61,0.5,0.88
				c0.26,0.27,0.62,0.5,1.1,0.69c0.47,0.19,1.1,0.28,1.88,0.28c0.83,0,1.5-0.09,1.98-0.28c0.49-0.19,0.87-0.41,1.14-0.67
				c0.27-0.26,0.45-0.54,0.54-0.84s0.13-0.58,0.13-0.84V344.28z"/>
			<path class="st1" d="M372.89,342.42v0.99c0,1.09-0.27,2.09-0.82,2.98c-0.55,0.89-1.35,1.52-2.42,1.9
				c-0.52,0.17-1.11,0.38-1.77,0.6s-1.3,0.45-1.92,0.67c-0.62,0.22-1.16,0.41-1.62,0.58c-0.46,0.17-0.75,0.27-0.86,0.3
				c-0.11,0.06-0.26,0.14-0.43,0.24c-0.17,0.1-0.34,0.25-0.52,0.45c-0.17,0.2-0.32,0.43-0.45,0.69c-0.13,0.26-0.19,0.56-0.19,0.9
				v0.78v5.52h-3.67v-26.44c0.03-1.47,0.63-2.7,1.79-3.69c1.16-0.99,3.01-1.49,5.54-1.49c1.29,0,2.4,0.14,3.32,0.41
				c0.92,0.27,1.68,0.65,2.29,1.12c0.6,0.47,1.04,1.03,1.32,1.66c0.27,0.63,0.41,1.31,0.41,2.03v1.04V342.42z M369.26,333.45
				c-0.03-0.37-0.11-0.73-0.24-1.08c-0.13-0.34-0.33-0.65-0.6-0.91c-0.27-0.26-0.65-0.46-1.12-0.6c-0.47-0.14-1.06-0.22-1.75-0.22
				c-0.72,0-1.32,0.08-1.79,0.24c-0.47,0.16-0.85,0.37-1.12,0.62c-0.27,0.26-0.47,0.54-0.58,0.84c-0.12,0.3-0.17,0.61-0.17,0.93
				v9.15v0.22v5.35c0.06-0.32,0.19-0.55,0.41-0.69c0.22-0.14,0.44-0.24,0.67-0.3c0.46-0.14,0.93-0.31,1.42-0.49s0.95-0.35,1.38-0.5
				c0.52-0.17,1.01-0.34,1.47-0.52c0.37-0.14,0.72-0.34,1.04-0.6c0.26-0.23,0.49-0.52,0.69-0.88c0.2-0.36,0.3-0.81,0.3-1.36v-0.22
				V333.45z"/>
			<path class="st1" d="M384.49,327.41c1.73,0,3.08,0.21,4.06,0.63c0.98,0.42,1.71,0.91,2.2,1.49c0.49,0.58,0.79,1.16,0.91,1.75
				c0.11,0.59,0.17,1.04,0.17,1.36v1.08v0.04v0.95c0,0.49-0.09,1.03-0.28,1.64c-0.19,0.6-0.63,1.25-1.32,1.94
				c-0.32,0.34-0.68,0.6-1.08,0.78c-0.4,0.17-0.76,0.3-1.08,0.39c-0.37,0.12-0.76,0.17-1.16,0.17h-3.28c-0.75,0-1.41,0.27-1.99,0.82
				c-0.58,0.55-0.86,1.22-0.86,2.03v1.94c0,0.69,0.13,1.24,0.39,1.64c0.11,0.2,0.24,0.38,0.39,0.52c0.14,0.14,0.36,0.27,0.65,0.39
				c0.23,0.12,0.52,0.22,0.88,0.3c0.36,0.09,0.83,0.13,1.4,0.13c0.75,0,1.34-0.08,1.77-0.24s0.73-0.3,0.91-0.41
				c0.37-0.29,0.63-0.63,0.78-1.04c0.14-0.4,0.22-0.83,0.22-1.29h3.67v1.04c0,0.77-0.17,1.5-0.5,2.16
				c-0.33,0.66-0.84,1.24-1.53,1.72c-0.49,0.35-1.16,0.65-2.03,0.91c-0.86,0.26-1.96,0.39-3.28,0.39c-0.98,0-1.83-0.08-2.55-0.24
				c-0.72-0.16-1.35-0.36-1.88-0.6c-0.53-0.25-0.97-0.53-1.32-0.84s-0.63-0.63-0.86-0.95c-0.52-0.75-0.76-1.61-0.73-2.59v-0.99
				v-1.94v-8.71v-0.04v-1.08c0-0.34,0.06-0.8,0.17-1.38c0.11-0.58,0.42-1.15,0.91-1.73c0.49-0.57,1.22-1.07,2.2-1.49
				C381.41,327.62,382.77,327.41,384.49,327.41z M388.16,333.71v-0.39c0-0.26-0.04-0.54-0.11-0.84c-0.07-0.3-0.24-0.59-0.5-0.86
				c-0.26-0.27-0.63-0.5-1.1-0.69c-0.47-0.19-1.1-0.28-1.88-0.28c-0.81,0-1.46,0.09-1.96,0.28c-0.5,0.19-0.89,0.41-1.16,0.67
				c-0.27,0.26-0.45,0.54-0.54,0.84c-0.09,0.3-0.13,0.57-0.13,0.8v0.47v0.04v0.34v3.62c0.06-0.26,0.19-0.47,0.39-0.62
				c0.2-0.16,0.43-0.28,0.69-0.37c0.26-0.09,0.52-0.14,0.78-0.17c0.26-0.03,0.46-0.04,0.6-0.04h2.46c0.66,0,1.24-0.24,1.73-0.71
				c0.49-0.47,0.73-1.04,0.73-1.7v-0.34V333.71z"/>
			<path class="st1" d="M402.61,327.46c0.49,0,0.91-0.01,1.27-0.02c0.36-0.01,0.74,0.01,1.14,0.06l-0.82,3.15
				c-0.34,0-0.63,0.01-0.86,0.02c-0.23,0.01-0.5,0.02-0.82,0.02c-0.78,0-1.4,0.1-1.88,0.3c-0.47,0.2-0.84,0.44-1.1,0.71
				c-0.26,0.27-0.42,0.56-0.5,0.86c-0.07,0.3-0.11,0.58-0.11,0.84v0.39v16.48h-3.67v-16.61v-0.99c0-0.32,0.06-0.77,0.17-1.36
				c0.11-0.59,0.42-1.17,0.91-1.75c0.49-0.58,1.22-1.07,2.2-1.49C399.53,327.66,400.88,327.46,402.61,327.46z"/>
		</g>
	</g>
</g>
</svg>
