<?xml version="1.0" encoding="utf-8"?>
<!-- Generator: Adobe Illustrator 23.0.1, SVG Export Plug-In . SVG Version: 6.00 Build 0)  -->
<svg version="1.1" id="Layer_1" xmlns="http://www.w3.org/2000/svg" xmlns:xlink="http://www.w3.org/1999/xlink" x="0px" y="0px"
	 viewBox="0 0 41 30" style="enable-background:new 0 0 41 30;" xml:space="preserve">
<style type="text/css">
	.st0{fill:url(#SVGID_1_);}
</style>
<linearGradient id="SVGID_1_" gradientUnits="userSpaceOnUse" x1="20.5584" y1="-0.1675" x2="20.4424" y2="29.9952">
	<stop  offset="0" style="stop-color:#F15A24"/>
	<stop  offset="0.9895" style="stop-color:#F48134"/>
	<stop  offset="1" style="stop-color:#F48134"/>
</linearGradient>
<path class="st0" d="M37,8.7L37,8.7L37,8.7C37,8.7,36.9,8.7,37,8.7L37,8.7l-3.5-3.2l-7,7.7c-2.8,3.1-7.5,3.3-10.6,0.5
	c-3.1-2.8-3.3-7.5-0.5-10.6L11.8,0c-4.5,5-4.1,12.8,0.9,17.3c2.1,1.9,4.7,2.9,7.3,3.1l-2.2,2.4c-2.8,3.1-7.5,3.3-10.6,0.5
	c-3.1-2.8-3.3-7.5-0.5-10.6L3.2,9.6C-1.4,14.6-1,22.3,4,26.9c4.7,4.3,11.9,4.1,16.4-0.1l0,0c5,4.5,12.8,4.1,17.3-0.9
	C42.3,21,42,13.2,37,8.7z M23.7,23.3l10.1-11.2c3.1,2.8,3.3,7.5,0.5,10.6S26.8,26.1,23.7,23.3z"/>
</svg>
