<?xml version="1.0" encoding="utf-8"?>
<!-- Generator: Adobe Illustrator 23.0.1, SVG Export Plug-In . SVG Version: 6.00 Build 0)  -->
<svg version="1.1" id="Layer_1" xmlns="http://www.w3.org/2000/svg" xmlns:xlink="http://www.w3.org/1999/xlink" x="0px" y="0px"
	 width="50px" height="30px" viewBox="21 0 50 30" style="enable-background:new 21 0 50 30;" xml:space="preserve">
<style type="text/css">
	.st0{fill:url(#SVGID_1_);}
</style>
<linearGradient id="SVGID_1_" gradientUnits="userSpaceOnUse" x1="50.069" y1="-0.1675" x2="49.953" y2="29.9952">
	<stop  offset="0" style="stop-color:#F15A24"/>
	<stop  offset="0.9895" style="stop-color:#F48134"/>
	<stop  offset="1" style="stop-color:#F48134"/>
</linearGradient>
<path class="st0" d="M66.5,8.7L66.5,8.7L66.5,8.7C66.5,8.7,66.5,8.7,66.5,8.7L66.5,8.7L63,5.5l-7,7.7c-2.8,3.1-7.5,3.3-10.6,0.5
	C42.3,11,42,6.2,44.8,3.2L41.3,0c-4.5,5-4.1,12.8,0.9,17.3c2.1,1.9,4.7,2.9,7.3,3.1l-2.2,2.4c-2.8,3.1-7.5,3.3-10.6,0.5
	c-3.1-2.8-3.3-7.5-0.5-10.6l-3.5-3.2c-4.5,5-4.1,12.8,0.9,17.3c4.7,4.3,11.9,4.1,16.4-0.1l0,0c5,4.5,12.8,4.1,17.3-0.9
	C71.9,21,71.5,13.2,66.5,8.7z M53.2,23.3l10.1-11.2c3.1,2.8,3.3,7.5,0.5,10.6C61.1,25.9,56.3,26.1,53.2,23.3z"/>
</svg>
